<?xml version="1.0" encoding="utf-8" ?>
<svg xmlns="http://www.w3.org/2000/svg" xmlns:xlink="http://www.w3.org/1999/xlink" width="1595" height="1595">
	<path fill="#ED8A40" transform="scale(1.55825 1.55825)" d="M759.947 769.716C763.099 772.218 765.911 775.114 769.057 777.607C766.113 779.234 763.123 780.971 759.926 782.059C758.739 778.687 759.701 773.331 759.947 769.716Z"/>
	<path fill="#FEFDFD" transform="scale(1.55825 1.55825)" d="M666.851 183.524L667.693 184.803C666.374 190.316 659.141 196.931 656.107 202.07C647.32 216.953 640.863 241.682 639.306 259.136C637.664 265.505 637.574 272.944 637.078 279.509L635.896 279.9L635.241 279.468C635.052 278.881 634.887 278.367 634.835 277.747C634.366 272.2 635.495 266.049 636.128 260.53C639.436 231.693 648.191 206.128 666.851 183.524Z"/>
	<path fill="#036AA6" transform="scale(1.55825 1.55825)" d="M706.763 413.697C710.4 417.056 714.57 420.13 717.991 423.662C709.88 428.256 701.186 435.762 692.761 440.947C688.282 437.946 683.467 434.779 678.452 432.778C687.438 425.674 696.949 419.59 706.763 413.697Z"/>
	<path fill="#ED8A40" transform="scale(1.55825 1.55825)" d="M556.397 321.912C555.328 321.248 554.269 320.566 553.272 319.795C549.395 316.798 546.327 313.255 545.784 308.191C544.72 298.259 550.878 286.184 557.059 278.773C561.495 273.455 567.525 267.769 574.785 267.29C581.14 266.871 586.057 270.372 590.635 274.262C590.339 274.359 590.044 274.46 589.747 274.554C586.537 275.574 583.054 275.602 579.81 276.559C571.112 279.126 563.834 288.015 559.747 295.727C556.489 301.877 554.674 307.829 555.492 314.85C555.757 317.126 556.429 319.649 556.397 321.912Z"/>
	<path fill="#143D7D" transform="scale(1.55825 1.55825)" d="M258.914 258.967C258.755 258.875 258.595 258.787 258.438 258.693C252.244 254.991 247.523 250.434 245.803 243.146C242.708 230.03 248.661 214.159 255.479 203.151C261.429 193.544 270.402 184.534 281.763 181.934C290.421 179.953 297.8 182.737 305.006 187.266C289.221 188.752 280.786 191.783 270.286 204.358C262.009 214.269 254.08 231.077 255.432 244.314C255.94 249.288 257.862 254.101 258.914 258.967Z"/>
	<path fill="#E15351" transform="scale(1.55825 1.55825)" d="M356.091 203.209L355.453 202.898C348.186 199.292 342.501 193.96 339.996 186.009C336.39 174.557 340.035 160.872 345.281 150.512C351.285 138.652 361.804 126.685 374.831 122.544C383.612 119.754 390.371 122.164 398.103 126.235C397.808 126.658 397.657 127.234 397.218 127.504C395.828 128.36 391.634 128.588 389.86 129.013C385.843 129.973 381.688 131.466 378.132 133.587C361.049 143.777 347.97 168.902 351.194 188.837C351.962 193.585 355.764 198.963 356.091 203.209Z"/>
	<path fill="#3C74B1" transform="scale(1.55825 1.55825)" d="M186.763 240.088C195.526 239.564 201.399 242.961 208.796 246.895Q206.242 246.88 203.702 247.141Q201.161 247.402 198.664 247.937Q196.167 248.471 193.742 249.273Q191.318 250.075 188.994 251.134C174.689 257.695 164.692 270.801 159.338 285.338C155.355 296.153 153.933 308.228 158.877 318.967L163.388 326.049C160.118 324.235 156.736 322.438 153.605 320.389C148.179 316.84 145.147 311.882 143.858 305.57C141.021 291.686 147.026 275.713 154.674 264.329C162.259 253.038 173.006 242.761 186.763 240.088Z"/>
	<path fill="#3C74B1" transform="scale(1.55825 1.55825)" d="M191.817 262.577C194.709 262.283 197.412 262.56 200.158 263.572C202.961 264.604 205.198 266.523 206.406 269.278C208.946 275.064 207.135 283.403 204.788 289.059C200.697 298.916 193.82 305.65 183.988 309.631C180.879 310.132 177.861 309.88 174.958 308.572C171.98 307.231 170.046 304.805 169.046 301.729C166.742 294.641 168.908 286.73 172.217 280.326C176.629 271.785 182.53 265.576 191.817 262.577Z"/>
	<path fill="#C3363D" transform="scale(1.55825 1.55825)" d="M846.909 486.298C849.263 489.633 851.482 493.378 854.243 496.373C861.017 503.722 873.12 508.494 882.772 510.187C898.2 512.895 915.234 509.992 928.151 500.907C933.602 497.073 937.557 492.152 941.531 486.878C941.608 496.77 941.78 505.525 934.442 513.214C924.811 523.305 908.512 527.385 895.002 527.534C880.996 527.689 865.999 523.728 855.798 513.672C847.061 505.059 846.983 497.855 846.909 486.298Z"/>
	<path fill="#F4B057" transform="scale(1.55825 1.55825)" d="M590.635 274.262C595.145 277.569 598.385 280.926 599.345 286.693C600.786 295.34 596.732 304.934 591.643 311.77C586.775 318.31 579.051 324.782 570.762 325.987C565.467 326.757 560.729 325.031 556.448 321.962C556.429 321.948 556.414 321.928 556.397 321.912C556.429 319.649 555.757 317.126 555.492 314.85C554.674 307.829 556.489 301.877 559.747 295.727C563.834 288.015 571.112 279.126 579.81 276.559C583.054 275.602 586.537 275.574 589.747 274.554C590.044 274.46 590.339 274.359 590.635 274.262Z"/>
	<path fill="#EE6E5D" transform="scale(1.55825 1.55825)" d="M946.499 737.582C946.834 741.606 947.329 744.699 944.641 748.085C941.8 751.663 931.969 756.658 927.628 759.135Q900.297 774.393 873.709 790.913Q859.76 799.773 845.708 808.469C839.773 812.14 833.75 816.262 827.3 818.956C824.35 818.443 821.868 817.588 819.165 816.303C808.029 811.011 797.381 803.936 786.729 797.688C777.832 792.471 768.487 787.81 759.926 782.059C763.123 780.971 766.113 779.234 769.057 777.607C772.055 778.282 775.598 780.522 778.28 781.994C789.035 787.896 815.111 807.101 825.328 807.977C829.05 808.297 832.62 807.649 835.998 806.083C844.703 802.049 852.721 796.427 860.811 791.306L892.57 771.504C900.215 766.767 907.825 761.936 915.584 757.39C926.238 751.147 936.905 745.445 946.499 737.582Z"/>
	<path fill="#143D7D" transform="scale(1.55825 1.55825)" d="M549.372 221.244C547.386 220.261 545.472 219.094 543.606 217.901C537.469 213.978 532.745 208.606 531.231 201.302C527.59 183.74 537.451 163.083 546.877 148.877C553.713 138.574 564.426 124.9 577.452 122.54C586.895 120.829 594.38 126.178 601.714 131.227C585.649 132.988 575.066 140.476 565.04 152.994C553.259 167.703 544.065 189.854 546.262 208.991C546.739 213.148 547.846 217.349 549.372 221.244Z"/>
	<path fill="#3C74B1" transform="scale(1.55825 1.55825)" d="M305.006 187.266C310.97 191.204 314.961 195.921 316.474 203.129C319.171 215.969 312.766 230.919 305.713 241.331C299.179 250.977 288.772 259.913 277.009 262.061C270.47 263.254 264.727 261.931 258.914 258.967C257.862 254.101 255.94 249.288 255.432 244.314C254.08 231.077 262.009 214.269 270.286 204.358C280.786 191.783 289.221 188.752 305.006 187.266Z"/>
	<path fill="#143D7D" transform="scale(1.55825 1.55825)" d="M289.252 204.503C292.183 204.391 294.836 204.522 297.545 205.765C300.336 207.046 302.283 209.247 303.26 212.155C305.327 218.314 303.402 226.026 300.439 231.65C296.797 238.564 290.658 244.131 283.155 246.462C280.825 246.534 278.473 246.456 276.142 246.447C273.156 244.636 270.971 242.658 269.588 239.377C267.197 233.702 268.644 226.779 270.996 221.293C274.688 212.682 280.692 207.892 289.252 204.503Z"/>
	<path fill="#4DB2DC" transform="scale(1.55825 1.55825)" d="M99.1062 453.997C101.656 457.54 103.732 461.652 106.665 464.87C114.118 473.045 127.278 477.514 137.897 479.217C155.157 481.986 175.121 479.305 189.521 468.85L189.523 486.523C189.535 493.223 189.786 500.008 189.551 506.698C181.819 511.632 171.437 514.331 162.447 515.696C143.632 518.553 122.381 514.679 106.967 503.095C99.3356 497.361 92.8737 489.274 91.6164 479.555C90.4372 470.44 93.6167 463.462 99.0847 456.459L99.1062 453.997Z"/>
	<path fill="#E15351" transform="scale(1.55825 1.55825)" d="M99.1062 453.997C101.656 457.54 103.732 461.652 106.665 464.87C114.118 473.045 127.278 477.514 137.897 479.217C155.157 481.986 175.121 479.305 189.521 468.85L189.523 486.523C178.421 492.003 168.291 496.291 155.809 497.263C140.225 498.476 121.702 494.968 109.611 484.447C100.67 476.668 99.8237 467.45 99.0847 456.459L99.1062 453.997Z"/>
	<path fill="#EE6E5D" transform="scale(1.55825 1.55825)" d="M398.103 126.235C404.676 129.175 410.561 133.337 413.087 140.404C416.997 151.344 412.637 165.628 407.638 175.546C401.197 188.327 390.428 200.289 376.51 204.878C369.913 207.053 363.017 206.782 356.795 203.586C356.558 203.464 356.326 203.335 356.091 203.209C355.764 198.963 351.962 193.585 351.194 188.837C347.97 168.902 361.049 143.777 378.132 133.587C381.688 131.466 385.843 129.973 389.86 129.013C391.634 128.588 395.828 128.36 397.218 127.504C397.657 127.234 397.808 126.658 398.103 126.235Z"/>
	<path fill="#C3363D" transform="scale(1.55825 1.55825)" d="M385.131 144.073C387.663 143.997 390.065 143.954 392.496 144.768C395.773 145.866 398.458 147.837 399.878 151.056C402.321 156.595 400.779 164.307 398.564 169.746C394.951 178.616 388.32 184.852 379.606 188.599C376.811 188.999 374.334 189.062 371.631 188.114C368.691 187.082 366.585 185.044 365.383 182.182C362.761 175.931 364.116 167.881 366.716 161.815C370.42 153.169 376.438 147.552 385.131 144.073Z"/>
	<path fill="#3C74B1" transform="scale(1.55825 1.55825)" d="M601.714 131.227C608.797 135.525 613.447 139.833 615.644 148.187C619.973 164.65 612.112 185.84 603.634 199.747C596.378 211.649 584.113 225.069 569.925 228.285C564.983 229.405 559.875 229.148 555.498 226.384C553.244 224.961 551.294 223.077 549.372 221.244C547.846 217.349 546.739 213.148 546.262 208.991C544.065 189.854 553.259 167.703 565.04 152.994C575.066 140.476 585.649 132.988 601.714 131.227Z"/>
	<path fill="#FEFDFD" transform="scale(1.55825 1.55825)" d="M605.608 146.495C607.924 147.94 609.7 149.671 611.614 151.584Q599.853 169.557 588.482 187.779C584.315 194.493 579.888 201.162 576.199 208.152C570.842 203.067 565.963 197.623 561.079 192.092L554.519 185.456C557.185 182.734 559.636 179.747 562.148 176.881Q569.482 184.309 576.588 191.956C586.872 177.264 596.085 161.694 605.608 146.495Z"/>
	<path fill="#E15351" transform="scale(1.55825 1.55825)" d="M846.909 486.298C845.813 476.048 846.17 467.678 852.895 459.379C861.084 449.275 874.587 444.886 887.111 443.67C902.303 442.195 918.902 444.775 930.982 454.75C937.206 459.89 941.27 466.436 942.051 474.589C942.448 478.74 941.978 482.759 941.531 486.878C937.557 492.152 933.602 497.073 928.151 500.907C915.234 509.992 898.2 512.895 882.772 510.187C873.12 508.494 861.017 503.722 854.243 496.373C851.482 493.378 849.263 489.633 846.909 486.298Z"/>
	<path fill="#7CD0EE" transform="scale(1.55825 1.55825)" d="M856.243 480.041C855.81 475.801 856.397 471.687 858.332 467.862C862.143 460.326 870.121 455.564 877.962 453.176C890.729 449.287 906.178 449.79 918.056 456.216C924.865 459.9 929.458 465.065 931.637 472.574C931.371 472.439 931.103 472.308 930.839 472.168C927.389 470.335 924.779 466.788 921.446 464.69C910.641 457.889 893.881 457.781 881.982 461.132C874.719 463.176 866.073 466.544 861.409 472.761C859.634 475.127 858.421 478.04 856.243 480.041Z"/>
	<path fill="#FEFDFD" transform="scale(1.55825 1.55825)" d="M856.243 480.041C858.421 478.04 859.634 475.127 861.409 472.761C866.073 466.544 874.719 463.176 881.982 461.132C893.881 457.781 910.641 457.889 921.446 464.69C924.779 466.788 927.389 470.335 930.839 472.168C931.103 472.308 931.371 472.439 931.637 472.574C933.187 477.3 932.502 481.69 930.367 486.144C926.82 493.545 918.857 498.274 911.302 500.698C898.434 504.826 883.181 504.586 871.052 498.222C864.502 494.785 859.124 489.792 856.832 482.573C856.573 481.756 856.254 480.902 856.243 480.041Z"/>
	<path fill="#036AA6" transform="scale(1.55825 1.55825)" d="M886.35 468.654C887.204 468.607 888.061 468.629 888.917 468.632C894.981 472.577 909.971 479.676 913.792 484.297C912.935 485.814 911.686 486.236 910.201 487.108C907.336 486.515 886.582 476.512 884.538 474.818C883.293 473.787 883.222 472.636 883.261 471.18C884.267 469.587 884.714 469.471 886.35 468.654Z"/>
	<path fill="#F4B057" transform="scale(1.55825 1.55825)" d="M99.0314 434.456C98.863 427.796 99.5933 421.056 102.557 415.016C107.664 404.606 119.004 397.761 129.676 394.281C149.659 387.765 171 390.393 189.455 399.875L189.866 434.068C190.004 441.832 190.701 450.347 189.57 458.038L189.521 468.85C175.121 479.305 155.157 481.986 137.897 479.217C127.278 477.514 114.118 473.045 106.665 464.87C103.732 461.652 101.656 457.54 99.1062 453.997C98.8633 447.478 98.9465 440.977 99.0314 434.456Z"/>
	<path fill="#ED8A40" transform="scale(1.55825 1.55825)" d="M99.0314 434.456L99.2948 434.872C101.593 438.581 103.021 442.81 105.425 446.436C110.986 454.826 123.447 460.49 132.918 462.802C146.061 466.011 162.92 465.977 175.413 460.257C179.998 458.158 184.179 454.924 188.891 453.155C189.416 454.849 189.536 456.269 189.57 458.038L189.521 468.85C175.121 479.305 155.157 481.986 137.897 479.217C127.278 477.514 114.118 473.045 106.665 464.87C103.732 461.652 101.656 457.54 99.1062 453.997C98.8633 447.478 98.9465 440.977 99.0314 434.456Z"/>
	<path fill="#ED8A40" transform="scale(1.55825 1.55825)" d="M150.322 405.215C158.71 404.933 167.562 406.986 174.444 411.937C179.191 415.353 182.678 420.423 183.515 426.275C184.265 431.516 182.483 436.777 179.237 440.881C172.786 449.039 163.074 451.871 153.159 453.038C143.771 452.753 134.525 451.265 126.906 445.345C122.15 441.648 118.618 436.349 118.055 430.255C117.58 425.112 119.529 420.212 122.908 416.385C129.791 408.589 140.365 405.964 150.322 405.215Z"/>
	<path fill="#FEFDFD" transform="scale(1.55825 1.55825)" d="M148.795 415.19C153.377 414.657 158.777 415.447 162.976 417.275C169.168 419.97 172.433 424.11 174.777 430.229C174.124 432.018 173.447 433.733 172.376 435.321C168.125 441.625 161.596 443.815 154.559 445.328C147.991 445.973 140.745 445.026 135.131 441.374C131.889 439.265 129.223 436.17 128.506 432.281C127.906 429.031 128.826 425.749 130.816 423.14C135.003 417.654 142.283 415.894 148.795 415.19Z"/>
	<path fill="#F4B057" transform="scale(1.55825 1.55825)" d="M878.536 692.477C892.854 699.68 906.242 709.351 919.79 717.926C927.111 722.559 935.201 726.563 941.986 731.96C944.09 733.634 945.334 735.156 946.499 737.582C936.905 745.445 926.238 751.147 915.584 757.39C907.825 761.936 900.215 766.767 892.57 771.504L860.811 791.306C852.721 796.427 844.703 802.049 835.998 806.083C832.62 807.649 829.05 808.297 825.328 807.977C815.111 807.101 789.035 787.896 778.28 781.994C775.598 780.522 772.055 778.282 769.057 777.607C765.911 775.114 763.099 772.218 759.947 769.716C759.895 768.521 759.804 767.154 760.158 765.998C761.595 761.306 854.972 704.766 866.363 698.341C870.316 696.111 874.28 694.069 878.536 692.477Z"/>
	<path fill="#FEFDFD" transform="scale(1.55825 1.55825)" d="M874.24 735.416C875.383 735.467 876.396 735.577 877.489 735.935C882.025 737.422 887.726 741.154 889.825 745.468C889.506 745.419 889.186 745.37 888.869 745.306C883.775 744.277 877.158 739.746 874.24 735.416Z"/>
	<path fill="#FEFDFD" transform="scale(1.55825 1.55825)" d="M798.528 755.93C805.088 757.49 814.219 764.034 817.918 769.632C816.926 769.661 815.901 769.674 814.945 769.358C809.319 767.501 800.935 761.273 798.528 755.93Z"/>
	<path fill="#FEFDFD" transform="scale(1.55825 1.55825)" d="M828.889 741.762C829.08 741.799 829.272 741.83 829.462 741.874C836.106 743.414 860.768 760.385 864.461 766.183C863.657 766.146 863.004 766.049 862.235 765.787C859.268 764.777 834.829 748.124 831.295 745.125C830.189 744.186 829.537 743.04 828.889 741.762Z"/>
	<path fill="#143D7D" transform="scale(1.55825 1.55825)" d="M93.8572 599.458C93.7053 602.701 94.4908 604.457 96.6609 606.851C101.704 612.416 140.785 634.771 149.532 640.078L230.701 690.06L403.446 796.622L455.704 828.829C463.493 833.622 470.993 839.007 479.075 843.304C487.693 847.886 497.349 850.807 507.139 851.06C518.148 851.345 528.172 848.147 537.813 843.002C551.177 835.869 563.629 826.99 576.347 818.787Q607.959 798.472 639.953 778.765L845.587 654.21L901.323 620.624C906.723 617.349 918.029 611.596 921.927 607.722C924.479 605.186 926.284 602.11 928.66 599.472C928.915 607.873 929.342 616.591 928.894 624.979C928.618 630.15 927.334 634.516 923.36 637.993C916.849 643.689 908.237 647.765 900.812 652.236L866.722 673.078L737.101 752.165Q669.936 793.071 603.43 835.041Q584.525 846.892 565.841 859.088C556.754 865.051 547.727 871.632 538.083 876.664C527.406 882.236 516.502 885.125 504.408 884.14C494.671 883.348 485.784 880.156 477.272 875.453C462.392 867.23 448.055 857.219 433.69 848.09Q396.46 824.411 358.844 801.35L189.145 696.831L133.175 662.426C125.734 657.884 118.077 653.675 110.728 648.984C106.402 646.223 101.521 642.983 98.2861 638.926C92.156 631.238 92.7837 609.109 93.8572 599.458Z"/>
	<path fill="#3C74B1" transform="scale(1.55825 1.55825)" d="M493.252 318.1C508.846 326.797 523.744 336.76 538.936 346.131L627.773 401.407L658.425 420.693C664.589 424.623 671.629 430.291 678.452 432.778C683.467 434.779 688.282 437.946 692.761 440.947C736.745 465.763 778.451 494.632 821.359 521.232L883.354 559.794C895.367 567.16 908.626 574.057 919.83 582.581C923.501 585.374 926.739 588.629 928.052 593.186C928.616 595.146 928.758 597.436 928.66 599.472C926.284 602.11 924.479 605.186 921.927 607.722C918.029 611.596 906.723 617.349 901.323 620.624L845.587 654.21L639.953 778.765Q607.959 798.472 576.347 818.787C563.629 826.99 551.177 835.869 537.813 843.002C528.172 848.147 518.148 851.345 507.139 851.06C497.349 850.807 487.693 847.886 479.075 843.304C470.993 839.007 463.493 833.622 455.704 828.829L403.446 796.622L230.701 690.06L149.532 640.078C140.785 634.771 101.704 612.416 96.6609 606.851C94.4908 604.457 93.7053 602.701 93.8572 599.458C94.1547 596.427 94.2824 593.134 95.258 590.231C96.1953 587.442 98.302 585.827 100.568 584.117C107.465 578.909 115.191 574.764 122.547 570.246C134.374 562.982 146.13 555.647 158.058 548.546C168.568 542.289 178.832 535.032 189.763 529.597C189.542 525.963 189.526 522.379 189.596 518.74C190.36 525.485 189.943 532.503 190.085 539.294C190.267 547.981 191.424 558.178 190.095 566.748C190.025 569.554 189.9 572.37 189.893 575.176C176.24 581.089 163.901 591.168 151.075 598.728C152.553 600.83 167.754 609.788 170.459 610.768L386.005 744.548C412.777 761.171 439.492 778.044 466.743 793.866C473.747 797.933 480.508 803.398 487.838 806.706C496.445 810.589 503.702 811.262 512.977 809.839C519.435 807.164 525.652 802.576 531.511 798.793L551.78 785.903C576.543 770.058 601.399 754.158 626.476 738.821L795.844 635.91Q816.795 623.122 837.938 610.653C847.188 605.198 857.062 600.302 865.472 593.596C865.505 593.258 865.321 592.739 865.244 592.402C859.323 586.233 840.491 575.299 832.363 570.212Q806.526 553.84 780.47 537.82L625.326 440.913L537.27 385.76L514.295 371.17C507.683 366.913 501.187 362.214 493.91 359.161C492.853 348.921 492.288 328.269 493.252 318.1Z"/>
	<path fill="#143D7D" transform="scale(1.55825 1.55825)" d="M144.115 594.437C159.482 585.258 174.635 575.786 190.095 566.748C190.025 569.554 189.9 572.37 189.893 575.176C176.24 581.089 163.901 591.168 151.075 598.728C148.222 598.279 146.174 596.297 144.115 594.437Z"/>
	<path fill="#FEFDFD" transform="scale(1.55825 1.55825)" d="M691.502 719.693C693.996 719.865 697.101 720.009 699.44 720.946C703.258 722.475 704.449 725.434 705.819 728.988C705.136 731.018 704.521 732.96 703.203 734.686C698.676 740.614 690.887 741.513 684.019 742.372C680.291 742.389 676.306 741.676 672.985 739.926C670.997 738.878 669.497 737.466 668.982 735.212C668.455 732.906 669.789 730.082 671.134 728.295C675.765 722.14 684.33 720.528 691.502 719.693Z"/>
	<path fill="#143D7D" transform="scale(1.55825 1.55825)" d="M865.472 593.596C865.88 594.9 866.121 595.49 865.7 596.849C864.481 598.482 863.016 599.631 861.343 600.768C849.401 608.879 836.495 615.858 824.124 623.323L754.215 665.721L609.688 753.514C589.243 766.106 568.943 779.003 548.712 791.937C541.83 796.336 535.185 801.152 528.206 805.391C524.932 807.38 520.312 810.133 516.459 810.548C514.994 810.706 514.217 810.607 512.977 809.839C519.435 807.164 525.652 802.576 531.511 798.793L551.78 785.903C576.543 770.058 601.399 754.158 626.476 738.821L795.844 635.91Q816.795 623.122 837.938 610.653C847.188 605.198 857.062 600.302 865.472 593.596Z"/>
	<path fill="#FEFDFD" transform="scale(1.55825 1.55825)" d="M695.509 160.75C701.204 156.981 707.609 154.545 714.095 152.498C734.591 146.028 754.751 145.501 775.717 149.738C818.365 158.355 856.697 185.568 880.639 221.66C906.17 260.149 918.343 307.199 908.917 352.932C902.406 384.524 884.687 412.278 857.529 429.921C831.053 447.12 800.037 454.12 768.895 447.394C751.314 443.597 732.433 434.598 717.991 423.662C714.57 420.13 710.4 417.056 706.763 413.697C702.148 407.828 696.504 402.741 691.783 396.921C683.278 386.437 675.06 374.51 669.004 362.451C664.893 354.264 661.656 345.592 658.258 337.09C652.99 328.135 649.426 316.465 647.272 306.35C645.683 298.887 645.04 289.676 641.217 282.977C640.198 281.193 639.117 280.011 637.078 279.509C637.574 272.944 637.664 265.505 639.306 259.136C640.863 241.682 647.32 216.953 656.107 202.07C659.141 196.931 666.374 190.316 667.693 184.803L666.851 183.524L670.615 179.351C675.991 173.911 681.36 168.872 688.073 165.119C690.515 163.59 692.999 162.163 695.509 160.75Z"/>
	<path fill="#036AA6" transform="scale(1.55825 1.55825)" d="M718.804 407.98C721.18 409.74 723.588 411.472 725.922 413.286L718.345 421.161Q713.698 417.581 709.267 413.737C711.886 411.348 715.665 409.608 718.804 407.98Z"/>
	<path fill="#4DB2DC" transform="scale(1.55825 1.55825)" d="M663.836 343.662C668.94 347.419 673.84 361.432 678.808 367.247C685.973 375.632 696.424 382.141 705.221 388.787C712.09 393.977 718.712 399.542 726.01 404.137L719.937 407.222C714.912 403.241 709.99 399.202 705.334 394.79C701.022 390.702 693.695 382.178 688.999 379.418C694.948 388.041 709.536 402.554 718.804 407.98C715.665 409.608 711.886 411.348 709.267 413.737C705.125 407.721 699.425 402.557 694.823 396.848C681.622 380.473 671.521 363.247 663.836 343.662Z"/>
	<path fill="#3C74B1" transform="scale(1.55825 1.55825)" d="M725.922 413.286C749.821 427.801 778.042 439.137 806.426 432.752C812.055 433.675 821.19 439.496 825.074 443.829C821.083 444.847 817.095 445.804 813.034 446.499C777.105 452.653 747.401 441.82 718.345 421.161L725.922 413.286Z"/>
	<path fill="#7CD0EE" transform="scale(1.55825 1.55825)" d="M639.306 259.136L639.93 259.781C641.947 257.969 644.706 246.908 645.822 243.914C647.919 238.291 650.681 232.785 653.618 227.557C663.094 210.692 676.46 195.962 691.382 183.732C703.298 173.966 718.32 164.625 734.26 164.51C739.164 164.475 744.15 165.58 749.036 166.069C720.852 169.472 697.521 183.455 680.115 205.713C658.298 233.61 647.754 273.144 652.251 308.398Q653.289 316.61 655.404 324.612C656.437 328.677 657.899 332.91 658.258 337.09C652.99 328.135 649.426 316.465 647.272 306.35C645.683 298.887 645.04 289.676 641.217 282.977C640.198 281.193 639.117 280.011 637.078 279.509C637.574 272.944 637.664 265.505 639.306 259.136Z"/>
	<path fill="#4DB2DC" transform="scale(1.55825 1.55825)" d="M840.631 205.756C845.902 210.846 851.069 215.942 855.675 221.661C877.211 248.4 890.488 283.624 890.987 318.068Q891.009 319.553 890.995 321.039Q890.98 322.524 890.929 324.009Q890.879 325.494 890.791 326.977Q890.704 328.46 890.58 329.94Q890.457 331.421 890.297 332.898Q890.137 334.375 889.941 335.847Q889.745 337.32 889.512 338.787Q889.28 340.255 889.012 341.716Q888.744 343.177 888.44 344.631Q888.136 346.086 887.797 347.532Q887.457 348.978 887.082 350.416Q886.707 351.853 886.297 353.281Q885.887 354.709 885.442 356.126Q884.997 357.544 884.517 358.95Q884.038 360.356 883.524 361.75Q883.01 363.143 882.461 364.524Q881.913 365.905 881.331 367.272Q880.75 368.639 880.134 369.991Q879.519 371.343 878.871 372.68Q878.223 374.017 877.542 375.337Q876.861 376.658 876.148 377.961Q875.435 379.264 874.691 380.55Q873.946 381.835 873.17 383.102Q872.394 384.369 871.587 385.616Q870.78 386.863 869.943 388.091Q869.105 389.318 868.238 390.524Q867.371 391.73 866.474 392.915Q865.578 394.099 864.652 395.262Q863.727 396.424 862.774 397.563Q861.82 398.702 860.839 399.818Q859.858 400.933 858.849 402.024Q857.841 403.115 856.806 404.181C843.338 418.001 822.24 429.367 803.012 431.821C777.256 434.947 749.841 427.785 728.493 413.12C725.537 411.398 722.738 409.196 719.937 407.222L726.01 404.137L727.136 403.964C736.331 399.846 744.935 393.676 753.46 388.332L796.36 416.279C802.427 420.242 808.323 425.044 814.643 428.497C823.525 420.706 833.732 414.43 843.761 408.26C848.824 405.145 855.46 402.036 859.635 397.806C860.541 396.888 861.056 396.469 861.194 395.157C861.616 391.151 860.999 386.476 860.99 382.389L860.98 349.103C868.098 346.073 883.146 322.533 889.174 315.417C888.036 309.641 887.843 303.693 886.754 297.881C883.499 280.517 877.259 264.018 869.144 248.366C863.588 237.649 856.943 226.917 849.205 217.639C847.002 214.998 840.921 209.108 840.631 205.756Z"/>
	<path fill="#036AA6" transform="scale(1.55825 1.55825)" d="M727.136 403.964C730.896 405.412 734.816 406.713 738.481 408.373C736.056 410.755 731.656 411.903 728.493 413.12C725.537 411.398 722.738 409.196 719.937 407.222L726.01 404.137L727.136 403.964Z"/>
	<path fill="#3C74B1" transform="scale(1.55825 1.55825)" d="M738.481 408.373C744.519 411.022 751.086 412.888 757.331 415.017C772.439 420.165 787.82 424.972 802.663 430.834L803.012 431.821C777.256 434.947 749.841 427.785 728.493 413.12C731.656 411.903 736.056 410.755 738.481 408.373Z"/>
	<defs>
		<linearGradient id="gradient_0" gradientUnits="userSpaceOnUse" x1="670.43787" y1="208.81418" x2="778.82764" y2="369.57486">
			<stop offset="0" stop-color="#87CEEE"/>
			<stop offset="1" stop-color="#BBE5F5"/>
		</linearGradient>
	</defs>
	<path fill="url(#gradient_0)" transform="scale(1.55825 1.55825)" d="M663.836 343.662C659.942 335.397 657.616 327.557 656 318.571C649.449 282.125 656.666 242.112 678.085 211.577C693.769 189.217 716.816 173.821 743.776 169.153C744.371 173.133 745.47 177.139 748.179 180.25C745.635 182.016 742.935 183.702 740.494 185.599Q733.275 190.372 726.263 195.443C722.521 198.186 718.86 201.281 714.89 203.673C714.419 204.675 714.381 204.639 714.689 205.695C715.493 216.675 715.135 227.872 714.987 238.878C713.009 237.661 710.048 235.354 707.717 235.155C706.314 235.035 705.748 236.023 704.871 236.91C693.909 244.92 680.043 255.673 668.458 262.181L667.185 263.146L667.575 264.159C665.755 267.991 667.015 324.426 666.875 333.276C682.671 343.823 698.149 354.822 713.906 365.424C719.652 369.29 725.529 373.982 731.573 377.258C732.59 377.81 733.492 378.145 734.664 378.142C738.404 375.413 742.373 372.627 746.496 370.52L746.517 382.873L753.46 388.332C744.935 393.676 736.331 399.846 727.136 403.964L726.01 404.137C718.712 399.542 712.09 393.977 705.221 388.787C696.424 382.141 685.973 375.632 678.808 367.247C673.84 361.432 668.94 347.419 663.836 343.662Z"/>
	<path fill="#7CD0EE" transform="scale(1.55825 1.55825)" d="M766.584 169.622C792.668 173.267 823.01 185.406 840.631 205.756C840.921 209.108 847.002 214.998 849.205 217.639C856.943 226.917 863.588 237.649 869.144 248.366C877.259 264.018 883.499 280.517 886.754 297.881C887.843 303.693 888.036 309.641 889.174 315.417C883.146 322.533 868.098 346.073 860.98 349.103C861.023 344.829 860.841 340.56 860.689 336.29C861.16 335.225 861.355 334.736 861.137 333.578C855.834 330.244 849.7 326.889 845.101 322.659C841.243 319.526 836.882 316.891 832.769 314.102C820.396 305.709 807.027 297.76 795.392 288.399L792.967 286.144C797.034 280.705 791.157 265.529 795.448 260.749L795.93 261.259C797.705 261.116 799.236 260.575 800.798 259.73C806.088 256.87 811.099 252.816 816.078 249.416C825.96 242.668 835.94 236.024 845.664 229.051C845.736 228.769 845.843 228.494 845.88 228.206C846.062 226.777 845.463 226.357 844.63 225.303C839.703 223.075 835.008 218.703 830.452 215.686L785.586 185.903C779.747 182.046 772.703 178.866 767.38 174.446C768.005 173.101 766.998 170.983 766.584 169.622Z"/>
	<path fill="#ED8A40" transform="scale(1.55825 1.55825)" d="M845.664 229.051C844.302 248.947 844.992 270.734 845.34 290.785C845.519 301.116 846.347 312.413 845.101 322.659C841.243 319.526 836.882 316.891 832.769 314.102C820.396 305.709 807.027 297.76 795.392 288.399L792.967 286.144C797.034 280.705 791.157 265.529 795.448 260.749L795.93 261.259C797.705 261.116 799.236 260.575 800.798 259.73C806.088 256.87 811.099 252.816 816.078 249.416C825.96 242.668 835.94 236.024 845.664 229.051Z"/>
	<path fill="#EE6E5D" transform="scale(1.55825 1.55825)" d="M792.967 286.144C797.034 280.705 791.157 265.529 795.448 260.749L795.93 261.259C794.275 269.636 799.053 280.894 795.392 288.399L792.967 286.144Z"/>
	<path fill="#ED8A40" transform="scale(1.55825 1.55825)" d="M743.776 169.153C750.219 168.793 756.475 168.709 762.921 169.217L766.584 169.622C766.998 170.983 768.005 173.101 767.38 174.446C772.703 178.866 779.747 182.046 785.586 185.903L830.452 215.686C835.008 218.703 839.703 223.075 844.63 225.303C845.463 226.357 846.062 226.777 845.88 228.206C845.843 228.494 845.736 228.769 845.664 229.051C835.94 236.024 825.96 242.668 816.078 249.416C811.099 252.816 806.088 256.87 800.798 259.73C799.236 260.575 797.705 261.116 795.93 261.259L795.448 260.749C791.157 265.529 797.034 280.705 792.967 286.144C788.777 285.938 782.924 292.106 779.388 294.198C778.386 289.567 779.553 284.683 778.304 280.028L776.526 278.536C755.512 266.438 735.354 252.063 714.987 238.878C715.135 227.872 715.493 216.675 714.689 205.695C714.381 204.639 714.419 204.675 714.89 203.673C718.86 201.281 722.521 198.186 726.263 195.443Q733.275 190.372 740.494 185.599C742.935 183.702 745.635 182.016 748.179 180.25C745.47 177.139 744.371 173.133 743.776 169.153Z"/>
	<path fill="#FEFDFD" transform="scale(1.55825 1.55825)" d="M714.89 203.673C727.066 210.501 738.27 219.138 749.858 226.896C765.247 237.199 781.053 246.856 796.024 257.79L796.527 257.939C802.466 257.254 838.352 230.478 844.63 225.303C845.463 226.357 846.062 226.777 845.88 228.206C845.843 228.494 845.736 228.769 845.664 229.051C835.94 236.024 825.96 242.668 816.078 249.416C811.099 252.816 806.088 256.87 800.798 259.73C799.236 260.575 797.705 261.116 795.93 261.259L795.448 260.749C788.787 253.179 776.24 246.969 767.593 241.467Q751.498 231.03 735.588 220.312C728.588 215.606 721.224 211.006 714.689 205.695C714.381 204.639 714.419 204.675 714.89 203.673Z"/>
	<path fill="#ED8A40" transform="scale(1.55825 1.55825)" d="M740.494 185.599Q748.312 190.752 756.189 195.814C760.945 198.813 766.52 201.582 770.553 205.54C775.913 210.801 794.515 249.004 795.861 256.281C796.027 257.178 795.992 256.974 796.024 257.79C781.053 246.856 765.247 237.199 749.858 226.896C738.27 219.138 727.066 210.501 714.89 203.673C718.86 201.281 722.521 198.186 726.263 195.443Q733.275 190.372 740.494 185.599Z"/>
	<path fill="#F4D293" transform="scale(1.55825 1.55825)" d="M743.776 169.153C750.219 168.793 756.475 168.709 762.921 169.217L766.584 169.622C766.998 170.983 768.005 173.101 767.38 174.446C772.703 178.866 779.747 182.046 785.586 185.903L830.452 215.686C835.008 218.703 839.703 223.075 844.63 225.303C838.352 230.478 802.466 257.254 796.527 257.939L796.024 257.79C795.992 256.974 796.027 257.178 795.861 256.281C794.515 249.004 775.913 210.801 770.553 205.54C766.52 201.582 760.945 198.813 756.189 195.814Q748.312 190.752 740.494 185.599C742.935 183.702 745.635 182.016 748.179 180.25C745.47 177.139 744.371 173.133 743.776 169.153Z"/>
	<path fill="#4DB2DC" transform="scale(1.55825 1.55825)" d="M762.921 169.217L766.584 169.622C766.998 170.983 768.005 173.101 767.38 174.446C765.657 173.268 763.924 172.199 762.098 171.188L761.302 170.643L761.202 169.903L762.921 169.217Z"/>
	<path fill="#7CD0EE" transform="scale(1.55825 1.55825)" d="M743.776 169.153C750.219 168.793 756.475 168.709 762.921 169.217L761.202 169.903L761.302 170.643L762.098 171.188C757.587 174.272 753.029 177.725 748.179 180.25C745.47 177.139 744.371 173.133 743.776 169.153Z"/>
	<path fill="#4DB2DC" transform="scale(1.55825 1.55825)" d="M695.509 160.75C697.32 161.413 698.158 161.25 700.039 160.712C703.6 159.691 706.912 157.826 710.334 156.438C717.294 153.615 725.38 151.736 732.781 150.722C801.157 141.356 865.469 188.758 893.363 248.722C911.405 287.508 915.695 331.472 900.705 372.037C890.045 400.885 868.826 424.738 840.734 437.495C835.606 439.823 830.331 441.814 825.074 443.829C821.19 439.496 812.055 433.675 806.426 432.752C824.486 431.46 842.915 419.475 855.794 407.466C878.785 386.03 891.681 354.548 892.735 323.333C894.092 283.166 877.908 241.246 850.325 212.058C822.817 182.95 789.291 167.195 749.036 166.069C744.15 165.58 739.164 164.475 734.26 164.51C718.32 164.625 703.298 173.966 691.382 183.732C676.46 195.962 663.094 210.692 653.618 227.557C650.681 232.785 647.919 238.291 645.822 243.914C644.706 246.908 641.947 257.969 639.93 259.781L639.306 259.136C640.863 241.682 647.32 216.953 656.107 202.07C659.141 196.931 666.374 190.316 667.693 184.803L666.851 183.524L670.615 179.351C675.991 173.911 681.36 168.872 688.073 165.119C690.515 163.59 692.999 162.163 695.509 160.75Z"/>
	<path fill="#FEFDFD" transform="scale(1.55825 1.55825)" d="M688.073 165.119L688.808 165.983C688.199 168.66 675.632 178.524 672.74 180.55C671.822 180.296 671.344 179.957 670.615 179.351C675.991 173.911 681.36 168.872 688.073 165.119Z"/>
	<path fill="#08748A" transform="scale(1.55825 1.55825)" d="M704.871 236.91C705.748 236.023 706.314 235.035 707.717 235.155C710.048 235.354 713.009 237.661 714.987 238.878C735.354 252.063 755.512 266.438 776.526 278.536L778.304 280.028C779.553 284.683 778.386 289.567 779.388 294.198C776.454 297.055 772.867 299.216 769.395 301.355C761.44 305.679 752.389 310.469 745.781 316.694L746.159 319.36C747.073 336.308 746.415 353.536 746.496 370.52C742.373 372.627 738.404 375.413 734.664 378.142C733.492 378.145 732.59 377.81 731.573 377.258C725.529 373.982 719.652 369.29 713.906 365.424C698.149 354.822 682.671 343.823 666.875 333.276C667.015 324.426 665.755 267.991 667.575 264.159L667.185 263.146L668.458 262.181C680.043 255.673 693.909 244.92 704.871 236.91Z"/>
	<path fill="#FEFDFD" transform="scale(1.55825 1.55825)" d="M667.575 264.159L667.185 263.146L668.458 262.181Q700.207 284.613 732.708 305.941C733.214 306.527 733.457 306.564 734.169 306.811C740.293 305.446 769.982 283.418 776.526 278.536L778.304 280.028Q765.255 289.421 751.989 298.504C746.225 302.408 740.092 306.086 734.552 310.283C728.406 305.229 721 300.948 714.404 296.455C698.746 285.787 682.866 275.347 667.575 264.159Z"/>
	<path fill="#143D7D" transform="scale(1.55825 1.55825)" d="M778.304 280.028C779.553 284.683 778.386 289.567 779.388 294.198C776.454 297.055 772.867 299.216 769.395 301.355C761.44 305.679 752.389 310.469 745.781 316.694L746.159 319.36C747.073 336.308 746.415 353.536 746.496 370.52C742.373 372.627 738.404 375.413 734.664 378.142C733.659 370.3 733.771 362.38 733.766 354.489C733.756 339.717 734.337 325.033 734.552 310.283C740.092 306.086 746.225 302.408 751.989 298.504Q765.255 289.421 778.304 280.028Z"/>
	<path fill="#08748A" transform="scale(1.55825 1.55825)" d="M704.871 236.91C710.79 251.64 731.631 293.892 732.708 305.941Q700.207 284.613 668.458 262.181C680.043 255.673 693.909 244.92 704.871 236.91Z"/>
	<path fill="#5FBEB5" transform="scale(1.55825 1.55825)" d="M704.871 236.91C705.748 236.023 706.314 235.035 707.717 235.155C710.048 235.354 713.009 237.661 714.987 238.878C735.354 252.063 755.512 266.438 776.526 278.536C769.982 283.418 740.293 305.446 734.169 306.811C733.457 306.564 733.214 306.527 732.708 305.941C731.631 293.892 710.79 251.64 704.871 236.91Z"/>
	<path fill="#C3363D" transform="scale(1.55825 1.55825)" d="M779.388 294.198C782.924 292.106 788.777 285.938 792.967 286.144L795.392 288.399C807.027 297.76 820.396 305.709 832.769 314.102C836.882 316.891 841.243 319.526 845.101 322.659C849.7 326.889 855.834 330.244 861.137 333.578C861.355 334.736 861.16 335.225 860.689 336.29C860.841 340.56 861.023 344.829 860.98 349.103L860.99 382.389C860.999 386.476 861.616 391.151 861.194 395.157C861.056 396.469 860.541 396.888 859.635 397.806C855.46 402.036 848.824 405.145 843.761 408.26C833.732 414.43 823.525 420.706 814.643 428.497C808.323 425.044 802.427 420.242 796.36 416.279L753.46 388.332L746.517 382.873L746.496 370.52C746.415 353.536 747.073 336.308 746.159 319.36L745.781 316.694C752.389 310.469 761.44 305.679 769.395 301.355C772.867 299.216 776.454 297.055 779.388 294.198Z"/>
	<path fill="#FEFDFD" transform="scale(1.55825 1.55825)" d="M745.781 316.694C752.511 320.673 758.74 325.39 765.13 329.881L795.124 350.943C800.924 355.012 806.801 359.585 813.008 362.998C818.316 363.202 854.032 337.892 861.137 333.578C861.355 334.736 861.16 335.225 860.689 336.29C854.64 339.619 848.948 344.16 843.184 347.996C833.693 354.314 823.955 360.315 814.319 366.411C814.357 379.589 813.997 392.84 813.704 406.019Q813.299 386.008 813.497 365.994C804.221 358.999 794.261 352.611 784.716 345.964C771.925 337.056 759.249 327.819 746.159 319.36L745.781 316.694Z"/>
	<path fill="#F4B057" transform="scale(1.55825 1.55825)" d="M779.388 294.198C782.924 292.106 788.777 285.938 792.967 286.144L795.392 288.399C807.027 297.76 820.396 305.709 832.769 314.102C836.882 316.891 841.243 319.526 845.101 322.659C849.7 326.889 855.834 330.244 861.137 333.578C854.032 337.892 818.316 363.202 813.008 362.998C806.801 359.585 800.924 355.012 795.124 350.943L765.13 329.881C758.74 325.39 752.511 320.673 745.781 316.694C752.389 310.469 761.44 305.679 769.395 301.355C772.867 299.216 776.454 297.055 779.388 294.198Z"/>
	<path fill="#E15351" transform="scale(1.55825 1.55825)" d="M745.781 316.694C752.389 310.469 761.44 305.679 769.395 301.355C781.288 308.826 792.636 317.119 804.656 324.367C807.181 336.47 813.208 350.845 813.008 362.998C806.801 359.585 800.924 355.012 795.124 350.943L765.13 329.881C758.74 325.39 752.511 320.673 745.781 316.694Z"/>
	<path fill="#143D7D" transform="scale(1.55825 1.55825)" d="M189.455 399.875C189.084 385.559 185.916 360.7 193.336 348.145C196.767 342.339 202.785 337.611 208.234 333.813C221.682 324.441 235.991 316.017 249.897 307.332L319.464 263.727L401.874 211.332C414.263 203.413 458.71 172.744 469.279 170.381C474.067 169.31 477.952 170.479 481.997 173.061C486.179 175.332 490.798 177.529 492.317 182.44C493.366 185.829 493.357 190.164 493.472 193.684C494.344 220.279 493.531 247.181 493.556 273.802L493.559 303.178C493.551 308.01 493.964 313.343 493.252 318.1C492.288 328.269 492.853 348.921 493.91 359.161L494.187 360.865L494.145 361.366C492.234 386.284 499.686 411.996 478.09 430.482C467.003 439.973 453.044 446.521 440.578 454.012L370.513 496.34L262.121 562.282Q250.278 569.414 238.599 576.812C232.229 580.883 225.937 585.243 219.325 588.907C215.255 591.163 210.523 593.471 205.746 592.993C203.668 592.785 201.689 591.937 199.884 590.922C198.279 590.999 196.891 590.238 195.696 589.227C191.788 585.923 190.175 580.088 189.893 575.176C189.9 572.37 190.025 569.554 190.095 566.748C191.424 558.178 190.267 547.981 190.085 539.294C189.943 532.503 190.36 525.485 189.596 518.74Q189.477 512.719 189.551 506.698C189.786 500.008 189.535 493.223 189.523 486.523L189.521 468.85L189.57 458.038C190.701 450.347 190.004 441.832 189.866 434.068L189.455 399.875Z"/>
	<path fill="#FEFDFD" transform="scale(1.55825 1.55825)" d="M189.455 399.875C189.084 385.559 185.916 360.7 193.336 348.145C196.767 342.339 202.785 337.611 208.234 333.813C221.682 324.441 235.991 316.017 249.897 307.332L319.464 263.727L401.874 211.332C414.263 203.413 458.71 172.744 469.279 170.381C474.067 169.31 477.952 170.479 481.997 173.061C474.837 172.999 469.782 173.708 463.376 177.061C448.321 184.942 434.304 195.216 419.988 204.365L337.525 256.868L244.776 315.234L221.705 329.793C214.922 334.072 207.455 338.179 201.738 343.861C192.678 352.867 192.371 364.473 192.417 376.483L193.362 509.967L193.39 546.893C193.305 557.288 192.702 567.979 194.084 578.306C194.744 583.244 196.687 587.145 199.884 590.922C198.279 590.999 196.891 590.238 195.696 589.227C191.788 585.923 190.175 580.088 189.893 575.176C189.9 572.37 190.025 569.554 190.095 566.748C191.424 558.178 190.267 547.981 190.085 539.294C189.943 532.503 190.36 525.485 189.596 518.74Q189.477 512.719 189.551 506.698C189.786 500.008 189.535 493.223 189.523 486.523L189.521 468.85L189.57 458.038C190.701 450.347 190.004 441.832 189.866 434.068L189.455 399.875Z"/>
	<path fill="#FEFDFD" transform="scale(1.55825 1.55825)" d="M213.623 362.962Q214.493 361.547 215.577 360.287C221.322 353.733 233.06 347.884 240.572 343.156Q254.933 334.141 269.185 324.954Q346.78 274.525 425.461 225.81C438.851 217.587 451.895 208.446 465.452 200.571C468.385 198.868 472.285 196.755 475.719 196.728C477.039 196.718 477.86 196.898 478.694 197.972C480.498 200.295 480.855 205.264 481.029 208.151C481.904 222.664 481.454 237.399 481.497 251.942L482.121 314.161L482.476 371.027C482.559 383.812 483.871 397.809 481.366 410.353C479.352 420.443 472.495 425.098 464.486 430.395C455.453 436.009 446.026 440.909 437.105 446.717C433.685 448.814 430.284 450.957 426.796 452.94L424.496 454.363C416.09 460.68 406.294 465.853 397.148 471.038L393.058 473.545C378.416 483.626 362.901 492.322 347.694 501.51C332.771 510.525 318.122 520.002 303.07 528.811C294.71 534.182 286.082 539.099 277.651 544.354C263.999 552.864 250.155 561.079 236.409 569.436C230.005 573.33 223.465 578.477 216.506 581.247C215.383 581.695 215.642 581.775 214.444 581.254C213.03 578.401 213.244 573.922 213.175 570.748C212.917 558.84 213.46 546.797 213.468 534.871L213.449 443.25L213.407 392.23C213.367 382.494 212.743 372.667 213.623 362.962Z"/>
	<path fill="#EE6E5D" transform="scale(1.55825 1.55825)" d="M283.685 365.688L285.533 366.866C276.372 382.747 268.382 400.601 257.301 415.168L256.424 413.58C257.525 409.901 261.308 405.033 263.289 401.603C270.159 389.708 277.243 377.817 283.685 365.688Z"/>
	<path fill="#F4B057" transform="scale(1.55825 1.55825)" d="M293.648 434.848C296.527 437.513 300.957 441.163 304.68 442.44C305.669 442.779 305.26 442.803 306.109 442.365L306.103 437.915C306.459 441.319 306.473 444.661 306.447 448.081L305.991 447.814C301.31 445.656 296.529 443.548 292.393 440.435C288.239 442.857 268.99 454.236 267.491 457.491C266.846 456.891 267.029 457.2 266.794 456.672C266.975 455.592 267.128 454.384 267.479 453.35C269.395 447.706 287.942 438.23 293.648 434.848Z"/>
	<path fill="#E15351" transform="scale(1.55825 1.55825)" d="M328.858 398.084C333.35 400.298 338.479 402.877 342.248 406.185C344.472 408.137 345.55 409.474 345.786 412.461C340.037 410.889 334.027 406.747 328.539 404.23L327.882 404.545C320.145 408.311 313.194 413.636 306.773 419.286L306.93 419.35L305.926 418.919C305.893 418.218 305.924 417.642 305.999 416.943C306.092 416.076 305.961 415.534 305.733 414.708L305.584 413.591C308.344 410.36 315.63 407.256 319.483 404.786C322.737 402.7 325.823 400.476 328.858 398.084Z"/>
	<path fill="#3C74B1" transform="scale(1.55825 1.55825)" d="M436.712 247.734C435.529 247.041 434.51 246.332 433.685 245.215C432.302 243.343 431.627 241.109 432.038 238.789C432.696 235.087 435.534 231.527 438.578 229.448C440.557 228.096 443.397 226.889 445.83 227.538C447.056 227.865 447.777 228.656 448.285 229.781C449.458 232.379 448.115 235.917 447.265 238.419L445.15 242.493C442.572 244.884 439.98 246.457 436.712 247.734Z"/>
	<path fill="#E15351" transform="scale(1.55825 1.55825)" d="M257.301 415.168C257.774 416.122 258.183 416.961 258.274 418.036C258.625 422.15 256.781 426.68 254.163 429.787C252.256 432.05 249.023 434.936 245.838 434.822C244.499 434.774 243.552 434.113 242.732 433.103C241.448 431.519 241.319 428.849 241.546 426.927C242.063 422.555 244.435 417.609 248.079 415.006C250.95 412.954 253.058 412.954 256.424 413.58L257.301 415.168Z"/>
	<path fill="#F4B057" transform="scale(1.55825 1.55825)" d="M354.828 318.82C352.337 321.688 349.738 324.428 346.282 326.151C345.093 326.744 343.784 327.027 342.523 326.441C340.846 325.66 339.561 323.417 339.19 321.661C338.446 318.144 339.893 314.406 341.829 311.52C343.713 308.708 347.48 304.623 351.052 304.141C352.129 303.995 353.262 304.174 354.046 304.99C356.095 307.126 355.497 311.674 355.367 314.375C359.67 320.297 364.265 325.556 369.657 330.531L368.801 332.265C363.055 329.381 358.887 323.643 354.828 318.82Z"/>
	<path fill="#7CD0EE" transform="scale(1.55825 1.55825)" d="M283.685 365.688C283.471 365.463 283.253 365.241 283.043 365.013C281.224 363.033 280.496 360.861 280.75 358.18C281.145 353.991 283.637 350.07 286.849 347.439C288.855 345.797 291.605 344.324 294.283 344.72C295.696 344.929 296.711 345.624 297.48 346.818C299.353 349.727 298.423 353.596 297.822 356.768C302.931 358.965 308.378 360.827 313.231 363.538Q313.03 366.04 312.68 368.526C312.695 367.746 312.813 366.717 312.644 365.965C312.621 365.864 312.333 364.998 312.127 364.864C309.217 362.97 300.89 360.579 296.969 358.727C296.105 359.891 295.229 361.058 294.303 362.173C291.924 365.04 289.236 366.488 285.533 366.866L283.685 365.688Z"/>
	<path fill="#3C74B1" transform="scale(1.55825 1.55825)" d="M343.221 327.007C339.597 337.575 333.453 346.5 329.196 356.696C329.777 362.409 330.443 367.821 326.486 372.594C324.176 375.379 320.851 377.263 317.567 378.67C315.569 377.766 313.309 376.989 312.44 374.768C311.706 372.89 312.294 370.421 312.68 368.526Q313.03 366.04 313.231 363.538C318.255 359.167 321.246 356.651 328.001 355.439C330.071 351.856 331.4 347.83 333.259 344.12C336.199 338.255 339.769 332.584 343.221 327.007Z"/>
	<path fill="#F8A09B" transform="scale(1.55825 1.55825)" d="M445.15 242.493C450.817 244.679 455.918 248.714 461.3 251.573C454.488 256.384 444.232 265.097 436.476 267.229L424.351 260.849C424.69 273.84 425.05 287.122 424.431 300.099C423.626 295.319 424.106 289.896 424.115 285.032Q424.159 273.005 423.947 260.98Q425.269 259.085 426.736 257.301Q428.203 255.516 429.806 253.852Q431.409 252.189 433.138 250.657Q434.867 249.125 436.712 247.734C439.98 246.457 442.572 244.884 445.15 242.493Z"/>
	<path fill="#EE6E5D" transform="scale(1.55825 1.55825)" d="M328.539 404.23C334.027 406.747 340.037 410.889 345.786 412.461L345.523 413.085C338.046 415.847 326.694 424.989 317.726 429.171C313.861 426.419 310.031 423.594 306.017 421.063C305.52 418.973 305.69 416.841 305.733 414.708C305.961 415.534 306.092 416.076 305.999 416.943C305.924 417.642 305.893 418.218 305.926 418.919L306.93 419.35L306.773 419.286C313.194 413.636 320.145 408.311 327.882 404.545L328.539 404.23Z"/>
	<path fill="#F4D293" transform="scale(1.55825 1.55825)" d="M292.393 440.435C296.529 443.548 301.31 445.656 305.991 447.814C305.436 448.7 305.212 448.813 305.194 449.895C296.709 455.872 286.661 463.867 277.4 468.315C273.962 466.308 270.547 464.261 266.967 462.513L266.517 462.343C266.531 460.455 266.461 458.535 266.794 456.672C267.029 457.2 266.846 456.891 267.491 457.491C268.99 454.236 288.239 442.857 292.393 440.435Z"/>
	<path fill="#7CD0EE" transform="scale(1.55825 1.55825)" d="M391.692 293.818C390.053 288.921 389.358 285.042 391.847 280.178C393.367 277.206 395.944 274.499 399.207 273.523C400.715 273.072 402.374 273.062 403.772 273.884C405.058 274.64 405.733 276.022 405.953 277.448C406.496 280.976 404.943 285.327 402.75 288.061C400.188 291.255 396.187 292.526 393.342 295.504C389.437 299.592 373.448 323.934 372.638 328.975C373.255 330.132 373.416 330.535 374.707 331.076C378.348 332.6 385.059 331.473 386.987 335.788C387.662 337.301 387.048 339.056 386.647 340.568L387.135 342.542L386.932 344.182L386.464 344.04C383.941 343.499 380.656 345.775 378.509 347.164C373.334 350.511 364.575 358.566 358.388 358.647C355.736 356.305 352.492 354.259 349.686 352.053L348.327 352.804L348.202 352.484L349.664 351.954L348.055 351.514L348.144 351.406L347.56 356.029C347.425 354.21 347.442 352.358 347.392 350.533L347.106 348.736C349.31 343.753 363.667 335.629 368.801 332.265L369.657 330.531C372.42 321.527 386.572 303.576 391.692 293.818Z"/>
	<path fill="#C7D8E3" transform="scale(1.55825 1.55825)" d="M372.757 334.131C377.3 336.505 381.944 338.543 386.647 340.568L387.135 342.542L386.932 344.182L386.464 344.04C383.941 343.499 380.656 345.775 378.509 347.164C373.334 350.511 364.575 358.566 358.388 358.647C355.736 356.305 352.492 354.259 349.686 352.053L348.327 352.804L348.202 352.484L349.664 351.954L348.055 351.514L348.144 351.406L347.56 356.029C347.425 354.21 347.442 352.358 347.392 350.533C350.907 349.13 354.434 345.964 357.526 343.742C362.444 340.208 367.315 336.83 372.757 334.131Z"/>
	<path fill="#08748A" transform="scale(1.55825 1.55825)" d="M227.484 475.892Q233.276 479.88 238.992 483.976L239.026 566.505C235.537 568.826 232.149 571.23 228.374 573.075C228.438 558.708 228.096 544.315 228.088 529.941C228.078 511.935 228.349 493.881 227.484 475.892Z"/>
	<path fill="#C3363D" transform="scale(1.55825 1.55825)" d="M306.017 421.063C310.031 423.594 313.861 426.419 317.726 429.171C317.028 439.21 317.426 449.303 317.478 459.357C317.579 479.084 317.883 498.909 317.418 518.627L307.011 524.441C306.99 514.77 306.847 505.075 307.053 495.407C307.387 479.751 308.216 463.671 306.447 448.081C306.473 444.661 306.459 441.319 306.103 437.915L306.017 421.063Z"/>
	<path fill="#ED8A40" transform="scale(1.55825 1.55825)" d="M386.855 351.389C387.027 350.42 386.997 349.527 387.655 348.776C390.235 350.638 395.607 353.376 397.314 355.858C396.424 364.053 396.96 371.683 396.994 379.89L397 415.696L396.974 451.193C396.95 457.745 396.49 464.525 397.148 471.038L393.058 473.545C390.871 473.787 389.416 474.662 387.511 475.727C387.289 434.332 388.577 392.744 386.855 351.389Z"/>
	<path fill="#3C74B1" transform="scale(1.55825 1.55825)" d="M347.56 356.029L348.144 351.406L348.055 351.514L349.664 351.954L348.202 352.484L348.327 352.804L349.686 352.053C352.492 354.259 355.736 356.305 358.388 358.647C357.511 364.759 357.897 371.413 357.905 377.586C357.92 389.64 358.154 401.724 358.004 413.774C357.928 419.885 357.248 425.989 357.105 432.107Q356.828 452.268 356.907 472.431C356.909 479.714 356.546 487.25 357.163 494.496C355.3 496.588 350.742 498.36 348.237 499.629C349.009 464.018 348.359 428.116 347.998 392.5C347.874 380.328 347.448 368.209 347.56 356.029Z"/>
	<path fill="#F4B057" transform="scale(1.55825 1.55825)" d="M305.194 449.895C305.954 456.984 306.217 522.181 305.162 525.501C304.776 526.715 303.863 527.321 303.237 528.352C303.152 528.491 303.126 528.658 303.07 528.811C294.71 534.182 286.082 539.099 277.651 544.354L277.501 543.915C278.67 540.457 277.342 530.442 277.262 526.004C277.082 516.038 277.166 506.059 277.036 496.09C276.915 486.881 276.45 477.489 277.4 468.315C286.661 463.867 296.709 455.872 305.194 449.895Z"/>
	<path fill="#E15351" transform="scale(1.55825 1.55825)" d="M317.726 429.171C326.694 424.989 338.046 415.847 345.523 413.085C345.452 442.536 344.452 472.148 345.249 501.584C336.32 507.431 327.014 513.982 317.418 518.627C317.883 498.909 317.579 479.084 317.478 459.357C317.426 449.303 317.028 439.21 317.726 429.171Z"/>
	<path fill="#4DB2DC" transform="scale(1.55825 1.55825)" d="M252.251 453.856C257.135 456.25 261.859 459.499 266.517 462.343L266.967 462.513C270.547 464.261 273.962 466.308 277.4 468.315C276.45 477.489 276.915 486.881 277.036 496.09C277.166 506.059 277.082 516.038 277.262 526.004C277.342 530.442 278.67 540.457 277.501 543.915C274.406 545.467 271.373 547.543 268.112 548.675C261.482 554.589 247.242 561.854 239.026 566.505L238.992 483.976Q233.276 479.88 227.484 475.892L227.161 474.632C227.231 473.885 227.244 472.986 227.445 472.266C228.939 466.924 247.035 457.117 252.251 453.856Z"/>
	<path fill="#7CD0EE" transform="scale(1.55825 1.55825)" d="M250.834 459.132Q257.467 463.421 264.431 467.148C257.785 471.93 246.133 480.875 238.992 483.976Q233.276 479.88 227.484 475.892L227.161 474.632C235.583 471.698 243.498 464.195 250.834 459.132Z"/>
	<path fill="#ED8A40" transform="scale(1.55825 1.55825)" d="M266.967 462.513C270.547 464.261 273.962 466.308 277.4 468.315C276.45 477.489 276.915 486.881 277.036 496.09C277.166 506.059 277.082 516.038 277.262 526.004C277.342 530.442 278.67 540.457 277.501 543.915C274.406 545.467 271.373 547.543 268.112 548.675L266.967 462.513Z"/>
	<path fill="#4DB2DC" transform="scale(1.55825 1.55825)" d="M358.388 358.647C364.575 358.566 373.334 350.511 378.509 347.164C380.656 345.775 383.941 343.499 386.464 344.04L386.622 351.321Q386.21 377.945 386.366 404.571L386.087 476.438C377.184 483.153 366.759 488.809 357.163 494.496C356.546 487.25 356.909 479.714 356.907 472.431Q356.828 452.268 357.105 432.107C357.248 425.989 357.928 419.885 358.004 413.774C358.154 401.724 357.92 389.64 357.905 377.586C357.897 371.413 357.511 364.759 358.388 358.647Z"/>
	<path fill="#F4B057" transform="scale(1.55825 1.55825)" d="M387.135 342.542C393.837 336.451 401.929 331.028 409.842 326.606C415.308 328.546 419.609 331.305 423.659 335.437L424.678 335.154C425.748 345.653 425.133 356.731 425.137 367.294L425.17 423.325C425.177 431.819 424.445 441.07 425.482 449.463C425.654 450.854 425.932 451.835 426.796 452.94L424.496 454.363C416.09 460.68 406.294 465.853 397.148 471.038C396.49 464.525 396.95 457.745 396.974 451.193L397 415.696L396.994 379.89C396.96 371.683 396.424 364.053 397.314 355.858C395.607 353.376 390.235 350.638 387.655 348.776C386.997 349.527 387.027 350.42 386.855 351.389L386.622 351.321L386.464 344.04L386.932 344.182L387.135 342.542Z"/>
	<path fill="#F4D293" transform="scale(1.55825 1.55825)" d="M387.135 342.542C393.837 336.451 401.929 331.028 409.842 326.606C415.308 328.546 419.609 331.305 423.659 335.437L424.678 335.154C425.748 345.653 425.133 356.731 425.137 367.294L425.17 423.325C425.177 431.819 424.445 441.07 425.482 449.463C425.654 450.854 425.932 451.835 426.796 452.94L424.496 454.363C422.906 437.599 423.848 420.343 423.844 403.5C423.839 382.692 423.194 361.648 424.065 340.87C415.1 345.522 407.162 352.238 397.998 356.356L397.314 355.858C395.607 353.376 390.235 350.638 387.655 348.776C386.997 349.527 387.027 350.42 386.855 351.389L386.622 351.321L386.464 344.04L386.932 344.182L387.135 342.542Z"/>
	<path fill="#F4B057" transform="scale(1.55825 1.55825)" d="M387.135 342.542C393.837 336.451 401.929 331.028 409.842 326.606C415.308 328.546 419.609 331.305 423.659 335.437L423.942 337.849C423.303 338.597 423.543 338.654 422.663 338.667C418.803 338.722 412.06 333.634 408.773 331.696C403.487 334.951 392.417 343.995 387.289 345.342L386.932 344.182L387.135 342.542Z"/>
	<path fill="#EE6E5D" transform="scale(1.55825 1.55825)" d="M447.265 238.419C452.996 241.867 459.033 245.132 464.522 248.944C462.565 257.524 463.611 267.919 463.619 276.734Q463.498 300.366 463.914 323.994C464.522 359.414 464.546 394.966 464.486 430.395C455.453 436.009 446.026 440.909 437.105 446.717C433.685 448.814 430.284 450.957 426.796 452.94C425.932 451.835 425.654 450.854 425.482 449.463C424.445 441.07 425.177 431.819 425.17 423.325L425.137 367.294C425.133 356.731 425.748 345.653 424.678 335.154C424.083 323.53 424.693 311.754 424.431 300.099C425.05 287.122 424.69 273.84 424.351 260.849L436.476 267.229C444.232 265.097 454.488 256.384 461.3 251.573C455.918 248.714 450.817 244.679 445.15 242.493L447.265 238.419Z"/>
	<path fill="#E15351" transform="scale(1.55825 1.55825)" d="M424.351 260.849L436.476 267.229Q435.985 330.481 436.516 393.731L436.472 427.079C436.461 433.37 435.83 440.545 437.105 446.717C433.685 448.814 430.284 450.957 426.796 452.94C425.932 451.835 425.654 450.854 425.482 449.463C424.445 441.07 425.177 431.819 425.17 423.325L425.137 367.294C425.133 356.731 425.748 345.653 424.678 335.154C424.083 323.53 424.693 311.754 424.431 300.099C425.05 287.122 424.69 273.84 424.351 260.849Z"/>
	<path fill="#FEFDFD" transform="scale(1.55825 1.55825)" d="M493.91 359.161C501.187 362.214 507.683 366.913 514.295 371.17L537.27 385.76L625.326 440.913L780.47 537.82Q806.526 553.84 832.363 570.212C840.491 575.299 859.323 586.233 865.244 592.402C865.321 592.739 865.505 593.258 865.472 593.596C857.062 600.302 847.188 605.198 837.938 610.653Q816.795 623.122 795.844 635.91L626.476 738.821C601.399 754.158 576.543 770.058 551.78 785.903L531.511 798.793C525.652 802.576 519.435 807.164 512.977 809.839C503.702 811.262 496.445 810.589 487.838 806.706C480.508 803.398 473.747 797.933 466.743 793.866C439.492 778.044 412.777 761.171 386.005 744.548L170.459 610.768C167.754 609.788 152.553 600.83 151.075 598.728C163.901 591.168 176.24 581.089 189.893 575.176C190.175 580.088 191.788 585.923 195.696 589.227C196.891 590.238 198.279 590.999 199.884 590.922C201.689 591.937 203.668 592.785 205.746 592.993C210.523 593.471 215.255 591.163 219.325 588.907C225.937 585.243 232.229 580.883 238.599 576.812Q250.278 569.414 262.121 562.282L370.513 496.34L440.578 454.012C453.044 446.521 467.003 439.973 478.09 430.482C499.686 411.996 492.234 386.284 494.145 361.366L494.187 360.865L493.91 359.161Z"/>
	<path fill="#F4B057" transform="scale(1.55825 1.55825)" d="M446.012 550.868C453.12 553.409 470.802 565.971 477.343 570.775C474.065 572.646 470.91 574.68 467.747 576.739C462.805 575.8 441.243 560.512 435.811 556.933Q440.876 553.84 446.012 550.868Z"/>
	<path fill="#F4B057" transform="scale(1.55825 1.55825)" d="M375.599 585.108C381.985 587.637 401.224 601.656 408.37 606.207C405.003 608.645 401.271 610.65 397.691 612.76C397.287 612.911 397.002 613.047 396.55 613.074C392.944 613.291 369.289 594.755 365.123 591.548C368.664 589.469 371.999 587.105 375.599 585.108Z"/>
	<path fill="#F4B057" transform="scale(1.55825 1.55825)" d="M395.459 557.857C400.237 557.761 430.283 580.07 436.337 584.413Q431.26 587.428 426.227 590.515C420.91 588.495 415.695 584.05 410.962 580.874Q398.088 572.37 385.389 563.607C388.887 561.929 392.156 559.879 395.459 557.857Z"/>
	<path fill="#F4B057" transform="scale(1.55825 1.55825)" d="M325.659 591.447C327.419 592.018 364.184 617.164 367.047 619.616C363.383 621.804 359.765 624.002 355.868 625.76C355.137 625.591 318.116 601.635 313.798 599.076C318.04 596.819 321.896 594.449 325.659 591.447Z"/>
	<path fill="#3C74B1" transform="scale(1.55825 1.55825)" d="M508.491 678.039C524.711 677.946 543.282 678.572 557.538 687.152C549.245 692.525 540.74 697.699 532.598 703.292C525.843 701.563 519.527 700.409 512.542 700.46C510.898 693.098 509.951 685.465 508.491 678.039Z"/>
	<path fill="#C3363D" transform="scale(1.55825 1.55825)" d="M522.475 510.94C524.555 511.787 529.001 519.813 530.982 522.198C533.909 525.723 537.326 529.369 540.994 532.123C550.23 539.058 560.852 542.108 571.806 545.057L571.504 562.825Q568.235 562.03 564.994 561.128C550.217 556.912 533.925 549.472 526.186 535.355C522.689 528.977 520.471 517.973 522.475 510.94Z"/>
	<path fill="#143D7D" transform="scale(1.55825 1.55825)" d="M530.154 428.777L531.208 429.363L531.251 430.498C527.853 435.272 484.702 459.822 476.375 464.918L240.696 607.73C239.743 606.989 239.605 606.915 239.224 605.784C239.855 604.353 241.072 603.613 242.355 602.813C264.29 589.141 287.001 576.777 309.073 563.346L530.154 428.777Z"/>
	<path fill="#143D7D" transform="scale(1.55825 1.55825)" d="M543.155 439.781C544.304 440.286 544.023 440.125 544.455 441.147C543.578 443.38 540.502 445.066 538.54 446.334C524.909 455.142 510.537 463.128 496.671 471.608L373.554 546.264L303.444 588.737C289.906 596.936 276.096 606.436 261.721 613.071C260.58 612.505 260.382 612.546 259.859 611.409C266.03 605.914 280.988 598.232 288.719 593.665L347.465 558.709C412.909 519.441 477.512 478.701 543.155 439.781Z"/>
	<path fill="#4DB2DC" transform="scale(1.55825 1.55825)" d="M561.225 689.427C561.599 689.627 561.973 689.826 562.343 690.034C576.805 698.16 583.505 706.316 588.005 722.16C582.406 725.374 576.788 728.572 571.401 732.134L567.629 728.364C558.16 718.974 548.411 711.569 536.969 704.764C545.393 700.57 553.47 694.769 561.225 689.427Z"/>
	<path fill="#143D7D" transform="scale(1.55825 1.55825)" d="M444.982 720.112C455.793 721.314 466.635 721.058 477.48 721.549L478.557 721.951C478.613 723.907 478.748 725.729 479.336 727.61C481.891 735.787 489.068 740.07 496.237 743.667C486.98 748.147 477.933 751.949 469.225 757.549L469.396 757.636C463.888 754.816 458.77 751.359 454.358 746.983C446.554 739.244 445.104 730.651 444.982 720.112Z"/>
	<path fill="#F4B057" transform="scale(1.55825 1.55825)" d="M449.237 708.332C450.382 706.28 451.63 704.195 453.062 702.329C466.218 685.186 488.207 680.495 508.491 678.039C509.951 685.465 510.898 693.098 512.542 700.46C502.602 701.062 490.815 703.446 483.804 711.165C480.904 714.356 479.454 717.803 478.557 721.951L477.48 721.549C469.725 715.683 458.201 712.156 449.237 708.332Z"/>
	<path fill="#7CD0EE" transform="scale(1.55825 1.55825)" d="M561.931 459.721C584.811 454.668 599.179 454.623 622.004 460.275C614.662 475.641 604.3 488.076 595.163 502.251C592.206 498.119 588.742 494.318 585.554 490.361C581.456 485.274 577.61 479.986 573.488 474.918C569.868 470.465 564.03 465.012 561.931 459.721Z"/>
	<path fill="#5FBEB5" transform="scale(1.55825 1.55825)" d="M480.316 572.369C488.442 576.292 495.52 582.03 503.029 586.98L541.357 612.225C534.807 615.589 528.472 619.648 522.266 623.61C517.28 623.327 466.977 589.74 461.164 584.558C467.739 580.925 474.142 576.648 480.316 572.369Z"/>
	<path fill="#F4B057" transform="scale(1.55825 1.55825)" d="M622.004 460.275C637.667 466.76 654.241 473.911 661.268 490.619C662.162 492.745 662.776 494.872 663.303 497.116L595.163 502.251C604.3 488.076 614.662 475.641 622.004 460.275Z"/>
	<path fill="#143D7D" transform="scale(1.55825 1.55825)" d="M664.917 504.513C667.205 516.12 666.905 527.362 660.174 537.502C650.543 552.013 631.914 559.825 615.41 563.051C600.549 565.956 586.367 564.85 571.504 562.825L571.806 545.057C577.382 544.696 583.435 546.215 589.05 546.626C603.221 547.663 619.355 544.027 632.445 538.749C642.757 534.591 655.089 527.188 660.191 516.828C662.052 513.047 663.049 508.841 664.72 504.962L664.917 504.513Z"/>
	<path fill="#4DB2DC" transform="scale(1.55825 1.55825)" d="M522.331 501.97C522.542 497.363 523.381 492.871 525.113 488.586C531.416 472.989 547.409 465.782 561.931 459.721C564.03 465.012 569.868 470.465 573.488 474.918C577.61 479.986 581.456 485.274 585.554 490.361C588.742 494.318 592.206 498.119 595.163 502.251L595.008 502.661C586.756 501.835 577.922 503.026 569.663 503.616C563.236 502.628 556.542 502.752 550.053 502.586L522.331 501.97Z"/>
	<path fill="#F4B057" transform="scale(1.55825 1.55825)" d="M554.265 727.743C562.206 732.858 570.467 737.399 578.311 742.679C576.418 744.648 574.485 746.607 572.471 748.453C554.905 764.559 531.239 770.533 507.877 769.311C500.073 768.654 492.773 767.017 485.432 764.297C489.828 758.146 494.089 750.887 497.132 743.97C506.1 746.893 515.208 747.897 524.559 746.263C536.764 744.132 547.095 737.881 554.265 727.743Z"/>
	<path fill="#E15351" transform="scale(1.55825 1.55825)" d="M628.768 596.507C635.426 598.333 642.173 603.885 647.909 607.708C635.088 614.312 622.766 622.619 610.51 630.218Q583.975 646.331 557.807 663.036C552.496 662.179 543.387 654.255 538.677 651.157Q566.343 635.115 593.51 618.241C605.28 611.027 617.229 604.092 628.768 596.507Z"/>
	<path fill="#EE6E5D" transform="scale(1.55825 1.55825)" d="M522.331 501.97L550.053 502.586C556.542 502.752 563.236 502.628 569.663 503.616C577.922 503.026 586.756 501.835 595.008 502.661C591.977 513.766 578.461 534.744 571.806 545.057C560.852 542.108 550.23 539.058 540.994 532.123C537.326 529.369 533.909 525.723 530.982 522.198C529.001 519.813 524.555 511.787 522.475 510.94L522.382 510.538C521.878 507.767 522.184 504.765 522.331 501.97Z"/>
	<path fill="#143D7D" transform="scale(1.55825 1.55825)" d="M522.331 501.97L550.053 502.586C556.542 502.752 563.236 502.628 569.663 503.616C553.879 505.441 537.984 507.512 522.382 510.538C521.878 507.767 522.184 504.765 522.331 501.97Z"/>
	<path fill="#E15351" transform="scale(1.55825 1.55825)" d="M579.076 677.213C593.101 670.615 607.848 659.921 621.157 651.612C636.811 641.839 653.937 632.382 668.829 621.634C675.437 625.189 681.78 629.768 688.12 633.813C665.813 646.214 644.14 659.938 622.498 673.454C618.146 676.171 606.233 682.665 603.356 686.017L597.78 689.667L579.076 677.213Z"/>
	<path fill="#E15351" transform="scale(1.55825 1.55825)" d="M649.322 608.955C655.549 611.741 661.74 616.671 667.407 620.476C637.732 639.562 607.351 657.702 577.391 676.351C571.256 672.286 565.134 668.257 558.777 664.545C566.075 659.185 574.891 654.872 582.62 650.067L649.322 608.955Z"/>
	<path fill="#4DB2DC" transform="scale(1.55825 1.55825)" d="M445.917 580.811C451.767 582.992 459.875 589.295 465.257 592.772C482.599 603.978 499.617 615.77 517.269 626.482Q505.684 633.657 494.24 641.055C487.682 639.238 472.277 627.38 465.996 623.084C452.156 613.618 438.316 603.507 423.344 595.891Q434.692 588.443 445.917 580.811Z"/>
	<path fill="#5FBEB5" transform="scale(1.55825 1.55825)" d="M421.839 600.851C423.454 600.932 424.586 601.364 425.987 602.133C433.416 606.212 440.5 611.649 447.576 616.375C461.544 625.706 475.619 635.067 489.976 643.79C482.442 649.191 473.989 653.754 466.068 658.597L464.815 658.842C458.288 656.944 406.557 622.088 398.719 615.923C406.626 611.217 414.241 606.034 421.839 600.851Z"/>
	<path fill="#E15351" transform="scale(1.55825 1.55825)" d="M688.12 633.813L689.283 634.534C695.911 638.055 702.342 641.58 708.002 646.595C694.29 654.332 680.951 662.805 667.456 670.921C650.379 681.191 633.146 691.196 616.195 701.673C610.445 697.772 604.725 693.868 598.713 690.377C600.435 689.453 602.208 688.572 603.858 687.524L603.356 686.017C606.233 682.665 618.146 676.171 622.498 673.454C644.14 659.938 665.813 646.214 688.12 633.813Z"/>
	<path fill="#C7D8E3" transform="scale(1.55825 1.55825)" d="M688.12 633.813L689.283 634.534C677.983 644.212 658.753 654.047 645.743 662.004C632.564 670.064 617.366 680.709 603.858 687.524L603.356 686.017C606.233 682.665 618.146 676.171 622.498 673.454C644.14 659.938 665.813 646.214 688.12 633.813Z"/>
	<path fill="#C7D8E3" transform="scale(1.55825 1.55825)" d="M772.348 559.312C779.615 562.047 786.467 567.431 792.929 571.72C788.202 575.101 782.925 577.914 777.928 580.898L751.492 596.776C734.637 607.042 718.13 618.637 700.539 627.572C696.711 627.904 683.595 618.189 679.967 615.653C696.367 606.646 712.014 596.234 727.98 586.479C742.73 577.467 758.044 568.989 772.348 559.312Z"/>
	<path fill="#C7D8E3" transform="scale(1.55825 1.55825)" d="M750.415 545.864C757.7 548.679 764.235 553.551 770.607 557.991C764.22 562.367 757.181 566.091 750.563 570.131L703.615 599.045C695.263 604.122 686.506 608.742 678.396 614.186C671.522 612.654 663.489 606.057 657.504 602.189L750.415 545.864Z"/>
	<path fill="#4DB2DC" transform="scale(1.55825 1.55825)" d="M341.31 621.975C348.565 625.939 355.508 631.518 362.44 636.104C384.493 650.693 407.452 667.146 430.529 679.788C423.631 684.071 416.784 688.511 409.69 692.461C409.054 692.564 408.478 692.382 407.889 692.123C405.717 691.171 403.381 689.011 401.34 687.653Q393.676 682.636 385.959 677.7L345.847 651.604C337.603 646.291 329.182 641.241 321.033 635.784C328.071 631.862 334.746 626.662 341.31 621.975Z"/>
	<path fill="#C7D8E3" transform="scale(1.55825 1.55825)" d="M726.421 530.821C734.317 534.163 741.716 539.681 748.861 544.366C736.225 550.318 724.472 558.805 712.578 566.128C694.549 577.23 676.187 587.919 658.417 599.425C657.877 599.623 657.109 599.963 656.513 600.012C652.616 600.333 639.264 589.848 635.885 587.437C648.122 579.129 661.137 571.742 673.741 563.984Q700.259 547.685 726.421 530.821Z"/>
	<path fill="#4DB2DC" transform="scale(1.55825 1.55825)" d="M381.696 610.474C386.861 611.772 403.762 624.944 409.214 628.605L460.168 662.523C451.489 666.579 443.146 671.816 435.252 677.225C434.536 677.28 434.06 677.068 433.407 676.736C427.662 673.82 417.911 666.414 411.951 662.564L357.219 627.35C365.688 622.253 373.77 616.371 381.696 610.474Z"/>
	<path fill="#C7D8E3" transform="scale(1.55825 1.55825)" d="M794.867 572.847C803.358 577.981 811.436 583.617 819.563 589.298C801.642 598.882 784.735 610.182 767.495 620.908C754.025 629.289 740.207 637.088 726.742 645.496Q720.342 640.455 713.429 636.144C709.957 633.991 705.767 632.008 702.708 629.322C705.916 626.593 719.263 619.732 723.914 616.853C747.576 602.203 771.386 587.784 794.867 572.847Z"/>
	<path fill="#3C74B1" transform="scale(1.55825 1.55825)" d="M663.303 497.116L664.917 504.513L664.72 504.962C663.049 508.841 662.052 513.047 660.191 516.828C655.089 527.188 642.757 534.591 632.445 538.749C619.355 544.027 603.221 547.663 589.05 546.626C583.435 546.215 577.382 544.696 571.806 545.057C578.461 534.744 591.977 513.766 595.008 502.661L595.163 502.251L663.303 497.116Z"/>
	<path fill="#C7D8E3" transform="scale(1.55825 1.55825)" d="M494.187 360.865C495.432 368.036 494.592 376.523 494.531 383.823C502.949 388.762 509.874 395.207 512.285 405.016C514.237 412.955 512.576 421.34 508.249 428.197C506.045 431.691 502.992 435.069 499.635 437.49C489.446 444.839 477.998 451.127 467.262 457.663L396.677 500.091C372.467 514.856 347.921 529.23 323.895 544.269C302.125 557.896 280.789 571.935 257.925 583.748C243.63 591.133 228.281 597.052 213.163 602.489C206.907 604.739 200.479 607.343 193.97 608.741C186.368 610.374 177.945 608.831 170.459 610.768C167.754 609.788 152.553 600.83 151.075 598.728C163.901 591.168 176.24 581.089 189.893 575.176C190.175 580.088 191.788 585.923 195.696 589.227C196.891 590.238 198.279 590.999 199.884 590.922C201.689 591.937 203.668 592.785 205.746 592.993C210.523 593.471 215.255 591.163 219.325 588.907C225.937 585.243 232.229 580.883 238.599 576.812Q250.278 569.414 262.121 562.282L370.513 496.34L440.578 454.012C453.044 446.521 467.003 439.973 478.09 430.482C499.686 411.996 492.234 386.284 494.145 361.366L494.187 360.865Z"/>
</svg>
